<svg t="1709102469529" class="icon" viewBox="0 0 1209 1024" version="1.1" xmlns="http://www.w3.org/2000/svg" p-id="12052" width="200" height="200"><path d="M737.882353 486.901961c15.058824-65.254902 35.137255-130.509804 70.27451-180.705883 30.117647-50.196078 80.313725-70.27451 110.431372 0l291.137255 717.803922h-250.980392L737.882353 486.901961zM0 1024c65.254902-165.647059 135.529412-331.294118 200.784314-501.960784-35.137255 0-55.215686-15.058824-55.215687-45.176471-105.411765-35.137255-60.235294-165.647059 0-155.607843-5.019608-40.156863 90.352941-75.294118 125.490197-35.137255 0-15.058824 30.117647-25.098039 45.17647-20.078431L406.588235 40.156863c15.058824-45.176471 105.411765-60.235294 130.509804 5.019608l396.54902 978.823529H0zM170.666667 356.392157c0-60.235294 75.294118-70.27451 100.392157-20.078432 5.019608-25.098039 65.254902-60.235294 95.372549 0 15.058824-50.196078 105.411765-35.137255 100.392156 20.078432 65.254902-15.058824 55.215686 95.372549-5.019607 95.372549-15.058824 55.215686-65.254902 65.254902-95.372549 20.078431-25.098039 40.156863-75.294118 30.117647-95.372549-5.019608-30.117647 45.176471-95.372549 30.117647-90.352942-15.058823-80.313725 10.039216-70.27451-105.411765-10.039215-95.372549z" p-id="12053" fill="#88147f"></path></svg>